<svg width="960" height="540" viewBox="0 0 960 540" fill="none" xmlns="http://www.w3.org/2000/svg">
  <rect width="960" height="540" rx="36" fill="#F7FAFF"/>
  <path d="M170 400h620" stroke="#E2E8F0" stroke-width="18" stroke-linecap="round"/>
  <rect x="210" y="120" width="540" height="292" rx="28" fill="#FFFFFF" stroke="#D1D5DB" stroke-width="10"/>
  <path d="M268 178h318" stroke="#CBD5E1" stroke-width="14" stroke-linecap="round"/>
  <path d="M268 228h400" stroke="#CBD5E1" stroke-width="14" stroke-linecap="round"/>
  <path d="M268 278h360" stroke="#CBD5E1" stroke-width="14" stroke-linecap="round"/>
  <path d="M268 328h260" stroke="#CBD5E1" stroke-width="14" stroke-linecap="round"/>
  <circle cx="728" cy="330" r="58" fill="#ECFDF5" stroke="#A7F3D0" stroke-width="10"/>
  <path d="M708 330l14 14 28-34" stroke="#059669" stroke-width="14" stroke-linecap="round" stroke-linejoin="round"/>
  <circle cx="330" cy="404" r="72" fill="#FFE6C7"/>
  <path d="M276 458c16-32 48-54 86-54 38 0 70 22 86 54" fill="#FFFFFF" stroke="#E5E7EB" stroke-width="10" stroke-linecap="round"/>
  <path d="M300 398c0 10 7 18 16 18s16-8 16-18" stroke="#334155" stroke-width="10" stroke-linecap="round"/>
  <path d="M358 398c0 10 7 18 16 18s16-8 16-18" stroke="#334155" stroke-width="10" stroke-linecap="round"/>
  <path d="M310 438c12 10 25 15 40 15 15 0 28-5 40-15" stroke="#0F172A" stroke-width="10" stroke-linecap="round"/>
  <path d="M260 362c26-34 58-52 98-52 40 0 72 18 98 52" stroke="#16A34A" stroke-width="18" stroke-linecap="round"/>
</svg>
