<svg width="960" height="540" viewBox="0 0 960 540" fill="none" xmlns="http://www.w3.org/2000/svg">
  <defs>
    <linearGradient id="bg" x1="120" y1="60" x2="840" y2="520" gradientUnits="userSpaceOnUse">
      <stop stop-color="#FFFFFF"/>
      <stop offset="1" stop-color="#F4FBF7"/>
    </linearGradient>
    <linearGradient id="accent" x1="220" y1="168" x2="740" y2="410" gradientUnits="userSpaceOnUse">
      <stop stop-color="#10B981" stop-opacity=".16"/>
      <stop offset="1" stop-color="#16A34A" stop-opacity=".06"/>
    </linearGradient>
  </defs>
  <rect x="0" y="0" width="960" height="540" rx="36" fill="url(#bg)"/>
  <rect x="132" y="112" width="696" height="316" rx="28" fill="#FFFFFF" stroke="#E5E7EB" stroke-width="10"/>
  <path d="M196 184h272" stroke="#CBD5E1" stroke-width="14" stroke-linecap="round"/>
  <path d="M196 234h420" stroke="#CBD5E1" stroke-width="14" stroke-linecap="round"/>
  <path d="M196 284h360" stroke="#CBD5E1" stroke-width="14" stroke-linecap="round"/>
  <path d="M196 334h220" stroke="#CBD5E1" stroke-width="14" stroke-linecap="round"/>
  <rect x="170" y="154" width="620" height="244" rx="22" fill="url(#accent)"/>
  <path d="M288 392c70-80 150-120 240-120s170 40 240 120" stroke="#A7F3D0" stroke-width="18" stroke-linecap="round"/>
  <circle cx="480" cy="252" r="70" fill="#FFFFFF" stroke="#D1D5DB" stroke-width="10"/>
  <path d="M448 252l18 18 40-48" stroke="#059669" stroke-width="16" stroke-linecap="round" stroke-linejoin="round"/>
  <path d="M356 252c0-68 55-124 124-124s124 56 124 124" stroke="#16A34A" stroke-width="18" stroke-linecap="round" stroke-opacity=".55"/>
</svg>
